<?xml version="1.0" standalone="no"?>
<!DOCTYPE svg PUBLIC "-//W3C//DTD SVG 20010904//EN"
 "http://www.w3.org/TR/2001/REC-SVG-20010904/DTD/svg10.dtd">
<svg version="1.0" xmlns="http://www.w3.org/2000/svg"
 width="64.000000pt" height="64.000000pt" viewBox="0 0 64.000000 64.000000"
 preserveAspectRatio="xMidYMid meet">

<g transform="translate(0.000000,64.000000) scale(0.100000,-0.100000)"
fill="#000000" stroke="none">
<path d="M0 478 l0 -162 40 55 c38 50 45 54 88 59 l47 5 3 58 3 57 209 0 c197
0 211 -1 230 -20 20 -20 20 -20 20 45 l0 65 -320 0 -320 0 0 -162z"/>
<path d="M72 360 l-33 -40 71 0 71 0 -3 38 c-3 35 -5 37 -38 40 -31 3 -40 -2
-68 -38z"/>
<path d="M112 208 c-7 -7 -12 -21 -12 -33 0 -40 50 -61 78 -33 28 28 7 78 -33
78 -12 0 -26 -5 -33 -12z"/>
<path d="M462 208 c-15 -15 -15 -51 0 -66 15 -15 51 -15 66 0 28 28 7 78 -33
78 -12 0 -26 -5 -33 -12z"/>
<path d="M0 90 l0 -90 320 0 320 0 0 90 0 90 -30 0 c-21 0 -30 -5 -30 -16 0
-25 -56 -74 -85 -74 -29 0 -85 49 -85 74 0 13 -15 16 -90 16 -75 0 -90 -3 -90
-16 0 -25 -56 -74 -85 -74 -29 0 -85 49 -85 74 0 11 -9 16 -30 16 l-30 0 0
-90z"/>
</g>
</svg>
