<svg height="512pt" viewBox="0 0 512 512" width="512pt" xmlns="http://www.w3.org/2000/svg" xmlns:xlink="http://www.w3.org/1999/xlink"><linearGradient id="a" gradientUnits="userSpaceOnUse" x1="-.000298" x2="512.000002" y1="256.0002" y2="256.0002"><stop offset="0" stop-color="#00f2fe"/><stop offset=".0208" stop-color="#03effe"/><stop offset=".2931" stop-color="#24d2fe"/><stop offset=".5538" stop-color="#3cbdfe"/><stop offset=".7956" stop-color="#4ab0fe"/><stop offset="1" stop-color="#4facfe"/></linearGradient><path d="m472 392v-20.882812c0-25.429688-20.691406-46.117188-46.125-46.117188h-191.875c-11.027344 0-20 8.972656-20 20 0 4.738281 1.664062 9.09375 4.433594 12.527344l4.058594 3.707031c.121093.113281.226562.238281.347656.355469 3.191406 2.152344 7.03125 3.410156 11.160156 3.410156h100c11.046875 0 20 8.953125 20 20s-8.953125 20-20 20h-100c-17.386719 0-33.0625-7.441406-44.03125-19.296875l-115.441406-105.488281c-.175782-.160156-.351563-.324219-.519532-.488282-3.8125-3.742187-8.855468-5.765624-14.195312-5.726562-5.34375.050781-10.347656 2.179688-14.085938 5.992188-3.742187 3.8125-5.777343 8.855468-5.726562 14.195312.046875 5.261719 2.113281 10.195312 5.820312 13.917969l101.765626 94.222656c.109374.101563.21875.203125.324218.304687 46.203125 44.730469 107.058594 69.367188 171.367188 69.367188h172.722656c11.046875 0 20 8.953125 20 20s-8.953125 20-20 20h-172.722656c-37 0-73.148438-7.039062-107.445313-20.921875-34.222656-13.851563-65.035156-33.886719-91.582031-59.546875l-101.855469-94.304688c-.140625-.132812-.28125-.265624-.421875-.402343-11.4375-11.226563-17.820312-26.234375-17.96874975-42.261719-.15234425-16.023438 5.94921875-31.148438 17.17187475-42.585938 11.226563-11.441406 26.234375-17.824218 42.261719-17.972656.191406-.003906.386719-.003906.578125-.003906 15.679687 0 30.464844 5.984375 41.730469 16.902344l77.113281 70.464844c5.640625-13.113282 15.828125-23.816407 28.5625-30.140626-39.105469-29.601562-64.421875-76.511718-64.421875-129.226562 0-89.328125 72.671875-162 162-162s162 72.671875 162 162c0 22.828125-4.660156 44.910156-13.851562 65.628906-4.476563 10.097656-16.292969 14.648438-26.390626 10.171875-10.097656-4.480469-14.652343-16.292969-10.171874-26.390625 6.910156-15.582031 10.414062-32.203125 10.414062-49.410156 0-67.269531-54.730469-122-122-122s-122 54.730469-122 122 54.730469 122 122 122c19.917969 0 39.671875-4.898438 57.125-14.167969 9.757812-5.179687 21.863281-1.472656 27.042969 8.28125 1.175781 2.210938 1.871093 4.542969 2.164062 6.886719h34.542969c47.488281 0 86.125 38.632812 86.125 86.117188v20.882812c0 11.046875-8.953125 20-20 20s-20-8.953125-20-20zm-188.101562-151v-1h-23.898438c-11.046875 0-20-8.953125-20-20s8.953125-20 20-20v-74.910156c-11.046875 0-20-8.957032-20-20 0-11.046875 8.953125-20 20-20h23.898438v-2.089844c0-11.046875 8.953124-20 20-20 11.046874 0 20 8.953125 20 20v2.296875c24.6875 2.230469 44.101562 23.03125 44.101562 48.292969 0 7.632812-1.777344 14.855468-4.933594 21.285156 9.785156 8.964844 15.933594 21.839844 15.933594 36.125 0 27.019531-21.980469 49-49 49h-6.101562v1c0 11.046875-8.953126 20-20 20-11.046876 0-20-8.953125-20-20zm16.101562-115.910156v16.910156h20.65625c4.140625-.566406 7.34375-4.117188 7.34375-8.410156 0-4.6875-3.8125-8.5-8.5-8.5zm0 74.910156h30c4.960938 0 9-4.039062 9-9s-4.039062-9-9-9h-7.683594c-.933594.054688-1.871094.089844-2.816406.089844-.585938 0-1.167969-.039063-1.742188-.089844h-17.757812zm0 0" fill="url(#a)"/></svg>