<svg id="Capa_1" enable-background="new 0 0 512 512" height="512" viewBox="0 0 512 512" width="512" xmlns="http://www.w3.org/2000/svg" xmlns:xlink="http://www.w3.org/1999/xlink"><linearGradient id="SVGID_1_" gradientUnits="userSpaceOnUse" x1="255.998" x2="255.998" y1="512" y2="83"><stop offset="0" stop-color="#addcff"/><stop offset=".5028" stop-color="#eaf6ff"/><stop offset="1" stop-color="#eaf6ff"/></linearGradient><linearGradient id="SVGID_2_" gradientUnits="userSpaceOnUse" x1="256" x2="256" y1="512" y2="0"><stop offset="0" stop-color="#5558ff"/><stop offset="1" stop-color="#00c0ff"/></linearGradient><g><g><path d="m345.998 332c-1.186 0-14.126 0-32.571 0 1.659-4.693 2.571-9.739 2.571-15v-34.2c.078-.15.143-.275.221-.426 24.298-17.11 40.368-43.415 43.878-72.774 18.001-6 30.901-22.8 30.901-42.6 0-19.501-12.599-36.301-30-42.301-8.101-8.399-35.4-41.699-105-41.699-69.901 0-96.301 32.999-105 41.699-17.401 6-30 22.8-30 42.301 0 19.799 12.9 36.599 30.601 42.6 3.3 27.299 16.8 51.601 38.399 68.699 1.8 1.501 3.9 3.001 6 4.501v34.2c0 5.261.912 10.307 2.571 15-18.764 0-31.813 0-32.571 0-24.814 0-45 20.186-45 45v135h270v-135c0-24.814-20.185-45-45-45z" fill="url(#SVGID_1_)"/></g></g><g><g><path d="m205.405 189.253.194-.053c32.975-9.159 67.824-9.159 100.8 0l.194.053c6.312 1.754 13.032-.793 16.597-6.288l37.809-58.266v-49.699c0-41.421-33.579-75-75-75h-60c-41.421 0-75 33.579-75 75v49.699l37.809 58.266c3.565 5.495 10.285 8.042 16.597 6.288zm275.293 304.746-21-104.399c-6.599-33.6-29.099-61.5-60.298-75.3l-78.282-34.825c-2.209 1.435-2.909 1.89-5.118 3.325v4.2c0 24.853-20.147 45-45 45h-30c-24.853 0-45-20.147-45-45v-4.2c-2.1-1.5-4.2-3-6-4.501l-68.099 22.5c-36.301 12.001-63.301 42.901-70.201 81l-20.4 112.5c-.901 4.5.3 9 3.3 12.301 2.701 3.3 6.899 5.4 11.4 5.4h105v-135c0-8.284 6.716-15 15-15h45v90c0 5.2 2.695 10.02 7.119 12.759 4.424 2.754 9.932 2.974 14.59.659l23.291-11.646 23.291 11.646c2.124 1.055 4.409 1.582 6.709 1.582 2.739 0 5.479-.747 7.881-2.241 4.424-2.739 7.119-7.559 7.119-12.759v-90h45c8.284 0 15 6.716 15 15v135h105c4.501 0 8.699-2.1 11.7-5.4 2.698-3.6 3.899-8.1 2.998-12.601z" fill="url(#SVGID_2_)"/></g></g></svg>