<svg id="Capa_1" enable-background="new 0 0 512 512" height="512" viewBox="0 0 512 512" width="512" xmlns="http://www.w3.org/2000/svg" xmlns:xlink="http://www.w3.org/1999/xlink"><linearGradient id="lg1"><stop offset="0" stop-color="#addcff"/><stop offset=".5028" stop-color="#eaf6ff"/><stop offset="1" stop-color="#eaf6ff"/></linearGradient><linearGradient id="SVGID_1_" gradientUnits="userSpaceOnUse" x1="256" x2="256" xlink:href="#lg1" y1="512" y2="0"/><linearGradient id="SVGID_00000057835751655042770510000007581279080937484425_" gradientUnits="userSpaceOnUse" x1="256" x2="256" y1="512" y2="0"><stop offset="0" stop-color="#5558ff"/><stop offset="1" stop-color="#00c0ff"/></linearGradient><linearGradient id="SVGID_00000103974310922393523410000003856330641130345150_" gradientUnits="userSpaceOnUse" x1="256" x2="256" xlink:href="#lg1" y1="500.826" y2="4.318"/><g><g><g><path d="m474 256v-45c0-16.569-13.431-30-30-30h-120c-16.569 0-30 13.431-30 30v45h-38v53c41.421 0 75 33.579 75 75s-33.579 75-75 75v53h211c24.853 0 45-20.147 45-45v-211zm-293-128c0-41.421 33.579-75 75-75v-53h-211c-24.853 0-45 20.147-45 45v211h38v45c0 16.569 13.431 30 30 30h120c16.569 0 30-13.431 30-30v-45h38v-53c-41.421 0-75-33.579-75-75z" fill="url(#SVGID_1_)"/></g></g><g><g><path d="m467 0h-211v53h-45c-16.57 0-30 13.43-30 30v45 45c0 16.57 13.43 30 30 30h45v53h53v-45c0-16.57 13.43-30 30-30h90c16.57 0 30 13.43 30 30v45h53v-211c0-24.81-20.19-45-45-45zm-264 301c0 16.57-13.43 30-30 30h-90c-16.57 0-30-13.43-30-30v-45h-53v211c0 24.81 20.19 45 45 45h211v-53h45c16.57 0 30-13.43 30-30v-45-45c0-16.57-13.43-30-30-30h-45v-53h-53zm173 128c24.813 0 45-20.187 45-45s-20.187-45-45-45-45 20.187-45 45 20.187 45 45 45zm-240-346c-24.813 0-45 20.187-45 45s20.187 45 45 45 45-20.187 45-45-20.187-45-45-45z" fill="url(#SVGID_00000057835751655042770510000007581279080937484425_)"/></g></g><g><g><path d="m128 331c-24.813 0-45 20.187-45 45s20.187 45 45 45 45-20.187 45-45-20.187-45-45-45zm256-240c-24.813 0-45 20.187-45 45s20.187 45 45 45 45-20.187 45-45-20.187-45-45-45z" fill="url(#SVGID_00000103974310922393523410000003856330641130345150_)"/></g></g></g></svg>