<svg id="Layer_1" enable-background="new 0 0 512 512" viewBox="0 0 512 512" xmlns="http://www.w3.org/2000/svg"><g clip-rule="evenodd" fill-rule="evenodd"><path d="m207.447 256.002c0 26.761 21.795 48.539 48.553 48.539s48.553-21.778 48.553-48.539c0-26.766-21.79-48.544-48.553-48.544-26.763.001-48.553 21.778-48.553 48.544zm21.77-64.725c8.063-3.339 13.039-10.781 13.039-19.508v-13.089h27.535v13.089c0 8.727 4.976 16.169 13.039 19.508 8.05 3.333 16.865 1.592 23.023-4.578l9.238-9.256 19.462 19.474-9.232 9.251c-6.159 6.172-7.908 14.967-4.581 23.026 3.33 8.065 10.796 13.036 19.517 13.036h13.084v27.53h-13.084c-8.723 0-16.186 4.982-19.517 13.046-3.327 8.054-1.575 16.857 4.581 23.026l9.233 9.251-19.463 19.464-9.237-9.255c-6.157-6.169-14.975-7.911-23.023-4.578-8.068 3.341-13.039 10.787-13.039 19.518v13.089h-27.535v-13.089c0-8.731-4.971-16.177-13.039-19.518-8.043-3.331-16.867-1.55-23.031 4.585l-9.284 9.241-19.464-19.463 9.294-9.251c6.161-6.133 7.889-14.995 4.574-23.019-3.334-8.072-10.786-13.046-19.517-13.046h-13.084v-27.53h13.084c8.73 0 16.184-4.962 19.517-13.036 3.314-8.029 1.59-16.883-4.574-23.019l-9.293-9.251 19.462-19.474 9.284 9.242c6.167 6.139 14.984 7.917 23.031 4.584zm-111.352 64.725c0-76.155 61.981-138.135 138.135-138.135 76.179 0 138.135 61.958 138.135 138.135 0 76.178-61.957 138.125-138.135 138.125-76.152.001-138.135-61.969-138.135-138.125zm298.009 0c0 88.162-71.712 159.869-159.874 159.869-88.137 0-159.874-71.729-159.874-159.869 0-88.143 71.73-159.883 159.874-159.883 88.169 0 159.874 71.718 159.874 159.883z" fill="#a3d4f7"/><path d="m281.258 246.3-25.023 29.16c-1.367 1.64-3.44 2.592-5.608 2.62h-.047c-2.168 0-4.194-.909-5.608-2.488l-14.09-15.702c-2.78-3.091-2.497-7.832.566-10.589 3.11-2.771 7.822-2.521 10.603.57l8.388 9.33 19.415-22.662c2.686-3.148 7.446-3.511 10.556-.811 3.157 2.693 3.534 7.433.848 10.572zm-25.258 46.242c20.169 0 36.568-16.394 36.568-36.539 0-20.155-16.399-36.544-36.568-36.544-20.122 0-36.521 16.39-36.521 36.544 0 20.144 16.399 36.539 36.521 36.539zm0-88.083c-28.416 0-51.553 23.119-51.553 51.543 0 28.415 23.137 51.539 51.553 51.539 28.415 0 51.553-23.124 51.553-51.539 0-28.424-23.138-51.543-51.553-51.543zm84.257 40.771c-9.943 0-18.519-5.702-22.289-14.891-3.817-9.189-1.838-19.259 5.231-26.29l7.116-7.13-15.221-15.23-7.116 7.13c-7.069 7.031-17.106 9.043-26.295 5.23-9.189-3.798-14.891-12.342-14.891-22.28v-10.089h-21.535v10.089c0 9.938-5.702 18.482-14.891 22.28-9.189 3.812-19.274 1.81-26.295-5.23l-7.163-7.13-15.221 15.23 7.163 7.13c7.021 7.031 9.001 17.101 5.231 26.29-3.817 9.189-12.346 14.891-22.289 14.891h-10.084v21.53h10.084c9.943 0 18.473 5.711 22.289 14.9 3.77 9.18 1.791 19.26-5.231 26.29l-7.163 7.13 15.221 15.221 7.163-7.13c7.021-7.031 17.106-9.033 26.295-5.231 9.189 3.808 14.891 12.346 14.891 22.289v10.089h21.535v-10.089c0-9.943 5.702-18.482 14.891-22.289 9.189-3.803 19.226-1.8 26.295 5.231l7.116 7.13 15.221-15.221-7.116-7.13c-7.069-7.031-9.048-17.111-5.231-26.29 3.77-9.189 12.347-14.9 22.289-14.9h10.085v-21.53zm1.555-38.599c2.592-2.592 4.006-6.041 4.006-9.712 0-3.68-1.414-7.13-4.006-9.707l-17.012-17.021c-5.372-5.349-14.09-5.349-19.415 0l-8.058 8.03c-2.686 2.7-6.409 3.44-9.896 1.979-3.534-1.47-5.655-4.618-5.655-8.43v-11.362c0-7.568-6.173-13.727-13.76-13.727h-24.033c-7.587 0-13.76 6.159-13.76 13.727v11.362c0 3.812-2.074 6.96-5.608 8.43-3.534 1.461-7.257.721-9.943-1.979l-8.011-8.03c-5.372-5.349-14.09-5.349-19.462 0l-17.012 17.021c-2.592 2.587-4.005 6.027-4.005 9.707 0 3.671 1.414 7.12 4.005 9.712l8.058 8.03c2.686 2.7 3.44 6.409 1.979 9.938-1.461 3.53-4.618 5.631-8.435 5.631h-11.357c-7.587 0-13.76 6.159-13.76 13.736v24.061c0 7.573 6.173 13.732 13.76 13.732h11.357c3.817 0 6.974 2.111 8.435 5.641 1.461 3.52.707 7.238-1.979 9.938l-8.058 8.03c-5.325 5.353-5.325 14.061 0 19.42l17.012 17.021c2.592 2.592 6.079 4.01 9.707 4.01 3.675 0 7.163-1.418 9.754-4.01l8.011-8.03c2.686-2.7 6.409-3.44 9.943-1.979s5.608 4.609 5.608 8.43v11.347c0 7.582 6.173 13.741 13.76 13.741h24.033c7.587 0 13.76-6.159 13.76-13.741v-11.347c0-3.822 2.121-6.97 5.655-8.43 3.487-1.461 7.21-.721 9.896 1.979l8.058 8.03c2.592 2.592 6.032 4.01 9.708 4.01s7.116-1.418 9.707-4.01l17.012-17.021c2.592-2.587 4.006-6.036 4.006-9.708 0-3.68-1.414-7.12-4.006-9.712l-8.011-8.03c-2.733-2.7-3.44-6.418-1.979-9.938 1.461-3.53 4.618-5.641 8.435-5.641h11.31c7.587 0 13.76-6.159 13.76-13.732v-24.061c0-7.577-6.173-13.736-13.76-13.736h-11.31c-3.817 0-6.974-2.102-8.435-5.631s-.754-7.238 1.979-9.938zm-85.812 175.497c69.554 0 126.149-56.576 126.149-126.126 0-69.554-56.595-126.13-126.149-126.13s-126.102 56.576-126.102 126.13c0 69.55 56.548 126.126 126.102 126.126zm0-267.26c-77.801 0-141.135 63.315-141.135 141.134s63.334 141.125 141.135 141.125c77.848 0 141.135-63.306 141.135-141.125s-63.287-141.134-141.135-141.134zm220.255 158.372h-49.244c.565-5.669.895-11.418.895-17.238 0-5.824-.33-11.574-.895-17.242h49.244c9.519 0 17.247 7.728 17.247 17.242 0 9.5-7.728 17.238-17.247 17.238zm-220.255 139.631c86.518 0 156.874-70.374 156.874-156.869 0-86.504-70.355-156.883-156.874-156.883-86.471 0-156.874 70.379-156.874 156.883 0 86.495 70.403 156.869 156.874 156.869zm167.948-13.312c6.739 6.72 6.739 17.652 0 24.382-6.739 6.72-17.671 6.72-24.363 0l-34.919-34.89c8.953-7.29 17.106-15.461 24.41-24.382zm-150.701 76.703c0 9.5-7.728 17.238-17.247 17.238s-17.247-7.738-17.247-17.238v-49.253c5.702.57 11.451.862 17.247.862 5.843 0 11.592-.292 17.247-.862zm-160.785-52.321c-6.738 6.72-17.671 6.72-24.41 0-6.691-6.729-6.691-17.662 0-24.382l34.919-34.89c7.257 8.92 15.457 17.091 24.363 24.382zm-76.717-150.701c-9.519 0-17.247-7.738-17.247-17.238 0-9.514 7.728-17.242 17.247-17.242h49.244c-.566 5.669-.848 11.418-.848 17.242 0 5.82.283 11.569.848 17.238zm52.307-160.799c-6.691-6.72-6.691-17.662 0-24.382 6.739-6.72 17.672-6.72 24.41 0l34.871 34.881c-8.906 7.299-17.106 15.471-24.363 24.382zm150.701-76.703c0-9.509 7.728-17.238 17.247-17.238s17.247 7.728 17.247 17.238v49.239c-5.655-.556-11.404-.858-17.247-.858-5.796 0-11.545.302-17.247.858zm160.832 52.321c6.691-6.72 17.624-6.72 24.363 0s6.739 17.662 0 24.382l-34.871 34.881c-7.304-8.911-15.457-17.082-24.41-24.382zm76.67 135.701h-51.412c-4.477-23.463-13.713-45.253-26.719-64.3l36.426-36.412c12.582-12.568 12.582-33.029 0-45.596-12.582-12.573-33.033-12.563-45.615 0l-36.379 36.417c-19.038-12.978-40.856-22.228-64.323-26.7v-51.43c0-17.78-14.467-32.237-32.232-32.237s-32.232 14.457-32.232 32.237v51.43c-23.467 4.472-45.238 13.722-64.277 26.7l-36.426-36.417c-12.582-12.563-33.034-12.573-45.615 0-12.535 12.568-12.535 33.029 0 45.596l36.426 36.412c-12.959 19.047-22.242 40.837-26.719 64.3h-51.413c-17.766 0-32.232 14.462-32.232 32.242 0 17.766 14.467 32.237 32.232 32.237h51.412c4.477 23.463 13.76 45.238 26.719 64.3l-36.426 36.408c-12.535 12.573-12.535 33.024 0 45.592 6.314 6.291 14.561 9.43 22.808 9.43s16.493-3.138 22.808-9.43l36.426-36.408c19.038 12.978 40.809 22.228 64.277 26.7v51.431c0 17.78 14.467 32.237 32.232 32.237s32.232-14.457 32.232-32.237v-51.431c23.467-4.472 45.286-13.722 64.323-26.7l36.379 36.408c6.315 6.291 14.561 9.43 22.808 9.43s16.54-3.138 22.808-9.43c12.582-12.568 12.582-33.019 0-45.592l-36.426-36.408c13.006-19.061 22.242-40.837 26.719-64.3h51.412c17.813 0 32.232-14.472 32.232-32.237-.001-17.779-14.42-32.242-32.233-32.242z" fill="#116fff"/></g></svg>