<svg id="Capa_1" enable-background="new 0 0 512 512" height="512" viewBox="0 0 512 512" width="512" xmlns="http://www.w3.org/2000/svg" xmlns:xlink="http://www.w3.org/1999/xlink"><linearGradient id="SVGID_1_" gradientUnits="userSpaceOnUse" x1="102.673" x2="227.334" y1="409.173" y2="284.513"><stop offset="0" stop-color="#ffc2cc"/><stop offset="1" stop-color="#fff2f4"/></linearGradient><linearGradient id="SVGID_2_" gradientUnits="userSpaceOnUse" x1="104.279" x2="500.47" y1="410.758" y2="14.568"><stop offset="0" stop-color="#fd3a84"/><stop offset="1" stop-color="#ffa68d"/></linearGradient><g id="Broom_2_"><g><g><path d="m229.754 286.933-104.7-45.3h-.3l-115.199 44.7c-4.801 1.8-8.101 6-9.3 11.1-.901 4.801.601 9.9 4.2 13.5l45.298 45.3 44.702-23.401-23.401 44.7 21 21 44.7-23.399-23.399 44.7 21.299 21.301 44.399-23.701-23.399 44.7 45.3 45.3c3.79 4.214 10.147 5.218 13.2 4.2 5.099-.901 9-4.2 11.1-8.699l47.999-112.5z" fill="url(#SVGID_1_)"/></g></g><g><g><path d="m498.724 12.825c-16.8-17.1-46.8-17.1-63.6 0l-218.57 218.607-9-8.7c-17.399-17.4-45.899-17.4-63.9 0l-18.6 18.9h-.3l148.5 148.801 19.2-19.501c17.701-17.4 17.701-45.901 0-63.299l-12.001-12.301 218.27-218.907c17.702-17.401 17.702-46.201.001-63.6zm-331.969 332.308c-5.7-6-15.3-6-21.301 0l-53.399 53.399 21.301 21.301 53.399-53.401c6-5.999 6-15.599 0-21.299zm21.301 42.299-53.401 53.701 21 20.999 53.399-53.399c6-5.7 6-15.3 0-21.301-5.698-5.7-15.298-5.7-20.998 0zm-63.6-84.6c-6-6-15.601-6-21.301 0l-53.401 53.401 21.301 21.299 53.401-53.699c5.7-5.701 5.7-15.301 0-21.001z" fill="url(#SVGID_2_)"/></g></g></g></svg>