<?xml version="1.0"?>
<svg xmlns="http://www.w3.org/2000/svg" xmlns:xlink="http://www.w3.org/1999/xlink" xmlns:svgjs="http://svgjs.com/svgjs" version="1.1" width="512" height="512" x="0" y="0" viewBox="0 0 512 512" style="enable-background:new 0 0 512 512" xml:space="preserve" class=""><g><linearGradient xmlns="http://www.w3.org/2000/svg" id="SVGID_1_" gradientUnits="userSpaceOnUse" x1="271" x2="271" y1="451" y2="61"><stop stop-opacity="1" stop-color="#dddddd" offset="0"/><stop stop-opacity="1" stop-color="#fafafa" offset="1"/></linearGradient><linearGradient xmlns="http://www.w3.org/2000/svg" id="SVGID_2_" gradientUnits="userSpaceOnUse" x1="256" x2="256" y1="481" y2="31"><stop stop-opacity="1" stop-color="#444444" offset="0"/><stop stop-opacity="1" stop-color="#999999" offset="1"/></linearGradient><g xmlns="http://www.w3.org/2000/svg"><g><g><path d="m497 61h-467v390h452v-300l30-30v-45c0-8.286-6.716-15-15-15z" fill="url(#SVGID_1_)" data-original="url(#SVGID_1_)" style=""/></g></g><g><g><path d="m234.027 121-55.547-83.322c-2.781-4.171-7.465-6.678-12.48-6.678h-151c-8.284 0-15 6.714-15 15v420c0 8.284 6.716 15 15 15h482c8.284 0 15-6.716 15-15v-345zm-37.939 173.745c2.432-5.332 7.764-8.745 13.623-8.745h16.289v-90c0-8.291 6.709-15 15-15h30c8.291 0 15 6.709 15 15v90h16.289c5.859 0 11.191 3.413 13.623 8.745 2.461 5.332 1.582 11.602-2.256 16.04l-46.289 45.249c-5.684 6.621-17.051 6.621-22.734 0l-46.289-45.249c-3.838-4.438-4.717-10.708-2.256-16.04zm164.912 111.255c0 8.291-6.709 15-15 15h-180c-8.291 0-15-6.709-15-15v-30c0-8.291 6.709-15 15-15s15 6.709 15 15v15h150v-15c0-8.291 6.709-15 15-15s15 6.709 15 15z" fill="url(#SVGID_2_)" data-original="url(#SVGID_2_)" style=""/></g></g></g></g></svg>
