<svg id="flat_gradient" height="512" viewBox="0 0 64 64" width="512" xmlns="http://www.w3.org/2000/svg" xmlns:xlink="http://www.w3.org/1999/xlink" data-name="flat gradient"><linearGradient id="linear-gradient" gradientUnits="userSpaceOnUse" x1="3.998" x2="60" y1="32.023" y2="32.023"><stop offset="0" stop-color="#096fe0"/><stop offset=".15843" stop-color="#167ce3"/><stop offset="1" stop-color="#5ec3f6"/></linearGradient><path d="m23.00999 23.22004c.49175-11.91133 17.48772-11.91204 17.97991-.00016.0867 5.91594-5.89946 10.29149-11.4199 8.65012-3.78003-1.06-6.56-4.54004-6.56001-8.64996zm23.48 23.04992c-1.17999-6.91998-7.22998-12.19995-14.48999-12.19995-8.19981-.06037-15.06427 7.00235-14.65008 15.01999.13006.39999.51007.67001.94006.67001h27.42004c1.64959-.13908.83373-2.44099.77997-3.49005zm2.96002-11.41998c3.62 0 6.57001-2.95001 6.57001-6.57001-.32981-8.69063-12.81152-8.68828-13.14002.00008 0 3.61991 2.95002 6.56992 6.57002 6.56992zm0 .70001c-1.85999 0-3.70001.48999-5.29999 1.41998.46997.48999.89996 1.02002 1.29999 1.57001 1.80387 2.43424 2.93047 5.45931 3.14995 8.54999h10.40004c.54999 0 1-.44995 1-1 0-5.81-4.72998-10.53998-10.54999-10.53998zm-34.90002-.70001c3.62 0 6.57001-2.95001 6.57001-6.57001-.32981-8.69063-12.81152-8.68828-13.14002.00008 0 3.61991 2.95002 6.56992 6.57002 6.56992zm5.29999 2.12c-6.81865-4.11105-15.99218 1.14506-15.84986 9.12017-.00012.54987.44989.99982.99988.99982h10.40002c.27033-3.79502 1.87998-7.39662 4.44995-10.12z" fill="url(#linear-gradient)"/></svg>