<?xml version="1.0"?>
<svg xmlns="http://www.w3.org/2000/svg" xmlns:xlink="http://www.w3.org/1999/xlink" xmlns:svgjs="http://svgjs.com/svgjs" version="1.1" width="512" height="512" x="0" y="0" viewBox="0 0 512 512" style="enable-background:new 0 0 512 512" xml:space="preserve" class=""><g><linearGradient xmlns="http://www.w3.org/2000/svg" id="SVGID_1_" gradientUnits="userSpaceOnUse" x1="256" x2="256" y1="512" y2="0"><stop offset="0" stop-color="#fd5900"/><stop offset="1" stop-color="#ffde00"/></linearGradient><linearGradient xmlns="http://www.w3.org/2000/svg" id="SVGID_2_" gradientUnits="userSpaceOnUse" x1="256" x2="256" y1="451" y2="0"><stop offset="0" stop-color="#ffe59a"/><stop offset="1" stop-color="#ffffd5"/></linearGradient><g xmlns="http://www.w3.org/2000/svg"><g><g><path d="m497 0h-166l-75 45-75-45h-166c-8.401 0-15 6.599-15 15v482c0 8.399 6.599 15 15 15h482c8.401 0 15-6.601 15-15v-482c0-8.401-6.599-15-15-15z" fill="url(#SVGID_1_)" data-original="url(#SVGID_1_)" style=""/></g></g><g><g><path d="m136 421h-60c-8.291 0-15 6.709-15 15s6.709 15 15 15h60c8.291 0 15-6.709 15-15s-6.709-15-15-15zm0-60h-60c-8.291 0-15 6.709-15 15s6.709 15 15 15h60c8.291 0 15-6.709 15-15s-6.709-15-15-15zm300-60h-15v-15c0-41.353-33.633-75-75-75s-75 33.647-75 75v15h-15c-8.401 0-15 6.599-15 15v120c0 8.399 6.599 15 15 15h180c8.401 0 15-6.601 15-15v-120c0-8.401-6.599-15-15-15zm-90 90c-8.401 0-15-6.601-15-15 0-8.401 6.599-15 15-15s15 6.599 15 15c0 8.399-6.599 15-15 15zm45-90h-90v-15c0-24.814 20.186-45 45-45s45 20.186 45 45zm-82.91-122.183c2.285 1.421 5.01 2.256 7.91 2.256 8.291 0 15-6.724 15-15v-166.073h-150v166c0 5.2 2.695 10.02 7.119 12.759 4.365 2.725 9.902 2.974 14.59.659l53.291-26.646z" fill="url(#SVGID_2_)" data-original="url(#SVGID_2_)" style=""/></g></g></g></g></svg>
