<svg id="Capa_1" enable-background="new 0 0 512 512" height="512" viewBox="0 0 512 512" width="512" xmlns="http://www.w3.org/2000/svg" xmlns:xlink="http://www.w3.org/1999/xlink"><linearGradient id="SVGID_1_" gradientUnits="userSpaceOnUse" x1="256" x2="256" y1="512" y2="0"><stop offset="0" stop-color="#fd5900"/><stop offset="1" stop-color="#ffde00"/></linearGradient><linearGradient id="SVGID_2_" gradientUnits="userSpaceOnUse" x1="256" x2="256" y1="451" y2="0"><stop offset="0" stop-color="#ffe59a"/><stop offset="1" stop-color="#ffffd5"/></linearGradient><g><path d="m497 0c8.401 0 15 6.599 15 15v482c0 8.399-6.599 15-15 15h-482c-8.401 0-15-6.601-15-15v-482c0-8.401 6.599-15 15-15h166l75 45 75-45z" fill="url(#SVGID_1_)"/><g><g><path d="m136 421h-60c-8.291 0-15 6.709-15 15s6.709 15 15 15h60c8.291 0 15-6.709 15-15s-6.709-15-15-15zm0-60h-60c-8.291 0-15 6.709-15 15s6.709 15 15 15h60c8.291 0 15-6.709 15-15s-6.709-15-15-15zm195-150c-66.301 0-120 53.699-120 120 0 66.299 53.699 120 120 120 66.299 0 120-53.701 120-120 0-66.301-53.701-120-120-120zm55.499 115.499-60 60c-2.699 3.001-6.599 4.501-10.499 4.501s-7.8-1.5-10.499-4.501l-30-30c-6-5.7-6-15.3 0-21 5.7-5.999 15.298-5.999 20.999 0l19.501 19.2 49.501-49.2c5.702-5.999 15.297-5.999 20.999 0 6 5.7 6 15.3-.002 21zm-78.409-147.682c2.285 1.421 5.01 2.256 7.91 2.256 8.291 0 15-6.724 15-15v-166.073h-150v166c0 5.2 2.695 10.02 7.119 12.759 4.365 2.725 9.902 2.974 14.59.659l53.291-26.646z" fill="url(#SVGID_2_)"/></g></g></g></svg>