<svg id="Capa_1" enable-background="new 0 0 512 512" height="512" viewBox="0 0 512 512" width="512" xmlns="http://www.w3.org/2000/svg" xmlns:xlink="http://www.w3.org/1999/xlink"><linearGradient id="SVGID_1_" gradientUnits="userSpaceOnUse" x1="256" x2="256" y1="512" y2="0"><stop offset="0" stop-color="#fd5900"/><stop offset="1" stop-color="#ffde00"/></linearGradient><linearGradient id="SVGID_2_" gradientUnits="userSpaceOnUse" x1="256" x2="256" y1="451" y2="360.8"><stop offset="0" stop-color="#ffe59a"/><stop offset="1" stop-color="#ffffd5"/></linearGradient><g><g><g><path d="m497 0h-166l-75 45-75-45h-166c-8.401 0-15 6.599-15 15v482c0 8.399 6.599 15 15 15h482c8.401 0 15-6.601 15-15v-482c0-8.401-6.599-15-15-15z" fill="url(#SVGID_1_)"/></g></g><g><g><path d="m446.499 275.499-60-60c-2.699-2.999-6.599-4.499-10.499-4.499h-90c-3.9 0-7.8 1.5-10.499 4.499l-60 60c-3.001 2.701-4.501 6.601-4.501 10.501v90c0 3.9 1.5 7.8 4.501 10.499l60 60c2.699 3.001 6.599 4.501 10.499 4.501h90c3.9 0 7.8-1.5 10.499-4.501l60-60c3.001-2.699 4.501-6.599 4.501-10.499v-90c0-3.9-1.5-7.8-4.501-10.501zm-115.499 115.501c-8.401 0-15-6.601-15-15 0-8.401 6.599-15 15-15s15 6.599 15 15c0 8.399-6.599 15-15 15zm15-75c0 8.399-6.599 15-15 15s-15-6.601-15-15v-30c0-8.401 6.599-15 15-15s15 6.599 15 15zm-210 105h-60c-8.291 0-15 6.709-15 15s6.709 15 15 15h60c8.291 0 15-6.709 15-15s-6.709-15-15-15zm0-60h-60c-8.291 0-15 6.709-15 15s6.709 15 15 15h60c8.291 0 15-6.709 15-15s-6.709-15-15-15zm172.09-182.183c2.285 1.421 5.01 2.256 7.91 2.256 8.291 0 15-6.724 15-15v-166.073h-150v166c0 5.2 2.695 10.02 7.119 12.759 4.365 2.725 9.902 2.974 14.59.659l53.291-26.646z" fill="url(#SVGID_2_)"/></g></g></g></svg>