<svg id="Capa_1" enable-background="new 0 0 512.007 512.007" height="512" viewBox="0 0 512.007 512.007" width="512" xmlns="http://www.w3.org/2000/svg" xmlns:xlink="http://www.w3.org/1999/xlink"><linearGradient id="SVGID_1_" gradientUnits="userSpaceOnUse" x1="256.004" x2="256.004" y1="512.007" y2="0"><stop offset="0" stop-color="#5558ff"/><stop offset="1" stop-color="#00c0ff"/></linearGradient><linearGradient id="SVGID_2_" gradientUnits="userSpaceOnUse" x1="256.004" x2="256.004" y1="450.007" y2="149.932"><stop offset="0" stop-color="#addcff"/><stop offset=".5028" stop-color="#eaf6ff"/><stop offset="1" stop-color="#eaf6ff"/></linearGradient><g id="Home_Security_9_"><g><g><path d="m505.998 184.01-241-181c-5.332-4.014-12.656-4.014-17.988 0l-241 181c-6.621 4.966-7.969 14.37-3.018 20.991 4.982 6.635 14.377 7.975 21.006 3.003l7.006-5.504v294.507c0 8.291 6.709 15 15 15h420c8.291 0 15-6.709 15-15v-294.507l7.006 5.504c6.638 4.979 16.03 3.624 21.006-3.003 4.951-6.621 3.603-16.025-3.018-20.991z" fill="url(#SVGID_1_)"/></g></g><g><g><path d="m365.204 180.606-105-30c-2.701-.899-5.7-.899-8.401 0l-105 30c-6.299 1.8-10.8 7.8-10.8 14.401v90c0 129.899 114.6 164.099 115.8 164.399 1.5.3 2.701.601 4.2.601 1.5 0 2.701-.3 4.2-.601 1.199-.3 115.8-34.5 115.8-164.399v-90c.001-6.601-4.5-12.601-10.799-14.401zm-94.2 116.701v77.701c0 8.399-6.599 15-15 15s-15-6.601-15-15v-77.701c-17.401-6.299-30-22.8-30-42.299 0-24.9 20.099-45 45-45 24.9 0 45 20.1 45 45 0 19.498-12.6 36-30 42.299z" fill="url(#SVGID_2_)"/></g></g></g></svg>