<svg id="Capa_1" enable-background="new 0 0 512 512" height="512" viewBox="0 0 512 512" width="512" xmlns="http://www.w3.org/2000/svg" xmlns:xlink="http://www.w3.org/1999/xlink"><linearGradient id="SVGID_1_" gradientUnits="userSpaceOnUse" x1="256" x2="256" y1="436" y2="82"><stop offset="0" stop-color="#5558ff"/><stop offset="1" stop-color="#00c0ff"/></linearGradient><linearGradient id="SVGID_2_" gradientUnits="userSpaceOnUse" x1="256" x2="256" y1="466" y2="46"><stop offset="0" stop-color="#addcff"/><stop offset=".5028" stop-color="#eaf6ff"/><stop offset="1" stop-color="#eaf6ff"/></linearGradient><g><g><g><path d="m512 316-120-150h-97v-84h-269v247.806l-26 16.194v75c0 8.284 6.716 15 15 15h482c8.284 0 15-6.716 15-15v-45l-24-15 24-15z" fill="url(#SVGID_1_)"/></g></g><g><g><path d="m136 376c-24.813 0-45 20.187-45 45s20.187 45 45 45 45-20.187 45-45-20.187-45-45-45zm271 0c-24.813 0-45 20.187-45 45s20.187 45 45 45 45-20.187 45-45-20.187-45-45-45zm45-15c0 8.284 6.716 15 15 15h45v-30h-45c-8.284 0-15 6.716-15 15zm-45-195h-15v135c0 8.284 6.716 15 15 15h105v-45c0-57.897-47.103-105-105-105zm-90-120h-302c-8.284 0-15 6.716-15 15v285h317c8.284 0 15-6.716 15-15v-270c0-8.284-6.716-15-15-15zm-61 150h-10.203l-12.588 62.942c-1.402 7.011-7.559 12.058-14.709 12.058h-105c-7.15 0-13.307-5.047-14.708-12.058l-12.589-62.942h-10.203c-8.284 0-15-6.716-15-15s6.716-15 15-15h33.288l12.159-48.638c2.009-8.037 10.153-12.923 18.19-10.914s12.923 10.153 10.914 18.19l-10.339 41.362h51.577l-10.341-41.362c-2.009-8.037 2.877-16.181 10.914-18.19s16.181 2.877 18.19 10.914l12.16 48.638h33.288c8.284 0 15 6.716 15 15s-6.716 15-15 15z" fill="url(#SVGID_2_)"/></g></g></g></svg>