<svg id="Layer_2" height="512" viewBox="0 0 512 502" width="512" xmlns="http://www.w3.org/2000/svg" xmlns:xlink="http://www.w3.org/1999/xlink" data-name="Layer 2"><linearGradient id="linear-gradient" gradientUnits="userSpaceOnUse" x1="20.79" x2="491.21" y1="493.09" y2="22.67"><stop offset="0" stop-color="#1e88e5"/><stop offset="1" stop-color="#90caf9"/></linearGradient><g id="Icon"><path id="_03" d="m496.62 467.16v10.42c0 13.47-10.95 24.42-24.41 24.42h-432.42c-13.46 0-24.41-10.95-24.41-24.42v-10.42c6.96 3.83 14.95 6.01 23.45 6.01h434.34c8.5 0 16.49-2.18 23.45-6.01zm-28.25-449.29h-35.65v37.24c7.17 6.99 11.62 16.73 11.62 27.53 0 21.23-17.21 38.44-38.43 38.44s-38.44-17.21-38.44-38.44c0-10.8 4.45-20.54 11.62-27.53v-37.24h-96.27v37.24c7.16 6.99 11.62 16.73 11.62 27.53 0 21.23-17.21 38.44-38.44 38.44s-38.44-17.21-38.44-38.44c0-10.8 4.46-20.54 11.62-27.53v-37.24h-96.27v37.24c7.17 6.99 11.62 16.73 11.62 27.53 0 21.23-17.21 38.44-38.44 38.44s-38.43-17.21-38.43-38.44c0-10.8 4.45-20.54 11.62-27.53v-37.24h-35.65c-24.06 0-43.63 19.57-43.63 43.63v69.95h512v-69.95c0-24.06-19.57-43.63-43.63-43.63zm-195.55 41.36v-42.41c0-9.29-7.53-16.82-16.82-16.82s-16.82 7.53-16.82 16.82v42.41c-7.27 5.23-12.01 13.76-12.01 23.41 0 15.92 12.91 28.83 28.83 28.83s28.83-12.91 28.83-28.83c0-9.64-4.74-18.17-12.01-23.41zm149.91 0v-42.41c0-9.29-7.53-16.82-16.82-16.82s-16.82 7.53-16.82 16.82v42.41c-7.27 5.23-12.01 13.76-12.01 23.41 0 15.92 12.91 28.83 28.83 28.83s28.83-12.91 28.83-28.83c0-9.64-4.74-18.17-12.01-23.41zm-299.81 0v-42.41c0-9.29-7.53-16.82-16.82-16.82s-16.82 7.53-16.82 16.82v42.41c-7.27 5.23-12.01 13.76-12.01 23.41 0 15.92 12.91 28.83 28.83 28.83s28.83-12.91 28.83-28.83c0-9.64-4.74-18.17-12.01-23.41zm191.88 260.7c-.25 0-.5 0-.73 0 3.11 1.7 5.21 4.99 5.21 8.78v24.3c0 4.79.54 8.78 1.6 11.88.23.03.56.06 1.01.06.39 0 .68-.03.89-.05.65-2.06 1.72-7.29 1.72-19.38v-5.78c0-6.51-1.05-12.16-3.13-16.8-.54-1.2-1.36-3.02-6.57-3.02zm-124.55-85.53c-.13 0-.24 0-.35 0-.72 2.94-1.08 6.41-1.08 10.36v114.17c0 2.09.46 3.83 1.46 5.43.95-1.61 1.4-3.34 1.4-5.43v-114.17c0-3.95-.36-7.43-1.08-10.36-.11 0-.22 0-.35 0zm110.08 75.79v-41.52c0-2.03.61-3.92 1.65-5.5h-38.68c-.62 0-1.23-.06-1.82-.17v55.72h.38 43.25c-.44-.27-.85-.57-1.25-.9-2.24-1.9-3.53-4.69-3.53-7.62zm22.37-74.16c-1.05 2.53-1.58 6-1.58 10.17v6.96c0 1.29-.24 2.52-.69 3.66.65-.33 1.22-.7 1.71-1.12 1.78-1.5 2.75-5.11 2.75-10.16 0-6.22-.99-8.76-1.43-9.57-.34 0-.59.03-.77.06zm189.3-94.58v282.89c0 21.41-17.42 38.83-38.83 38.83h-434.34c-21.41 0-38.83-17.42-38.83-38.83v-282.89zm-119.02 204.08c0-10.72-.51-20.05-1.53-27.72-1.16-8.7-3.74-16.22-7.68-22.35-1.4-2.19-3.05-4.24-4.94-6.14 3.53-3.42 6.29-7.52 8.26-12.28 3.56-8.59 5.36-19.36 5.36-32.01 0-23.07-5.91-40.92-17.57-53.04-11.77-12.24-29.11-18.44-51.55-18.44s-40.73 5.98-52.53 17.77c-6.41 6.41-11.1 14.66-14.05 24.69-2.93-9.04-7.22-16.83-12.85-23.32-12.01-13.84-30.07-20.85-53.67-20.85s-41.53 7.01-53.59 20.84c-11.7 13.43-17.64 32.45-17.64 56.56v104.31c0 23.18 6.32 41.44 18.79 54.27 12.54 12.91 30.18 19.45 52.43 19.45s40.01-6.55 52.51-19.47c5.89-6.09 10.41-13.4 13.53-21.88 2.73 8.76 6.7 16.2 11.92 22.24 11.23 13.03 28.76 19.63 52.11 19.63 25.58 0 44.44-7.63 56.06-22.67 11.02-14.26 16.6-34.31 16.6-59.58zm-157.41 55.31c10.6-10.95 15.9-26.71 15.9-47.3v-104.31c0-21.72-5.04-38.38-15.11-49.99-10.07-11.6-25.44-17.41-46.11-17.41s-35.93 5.8-46.05 17.41-15.17 28.27-15.17 49.99v104.31c0 20.58 5.32 36.35 15.96 47.3s25.73 16.42 45.26 16.42 34.73-5.47 45.33-16.42zm-53.67-31.01c-2.06-3.24-3.09-6.87-3.09-10.9v-114.17c0-5.43.59-10.18 1.77-14.25s4.4-6.11 9.66-6.11 8.47 2.04 9.66 6.11 1.77 8.82 1.77 14.25v114.17c0 4.03-1.01 7.66-3.02 10.9-2.02 3.24-4.82 4.86-8.41 4.86s-6.29-1.62-8.34-4.86zm186.56 29.17c9.68-12.52 14.52-30.35 14.52-53.47 0-10.33-.48-19.14-1.45-26.41-.96-7.27-3.02-13.36-6.17-18.26s-8.01-8.93-14.58-12.09c8.32-2.98 14.01-8.17 17.08-15.57 3.06-7.4 4.6-16.79 4.6-28.18 0-40.99-19.71-61.48-59.12-61.48-20.41 0-35.56 4.95-45.46 14.85s-14.85 25.44-14.85 46.64c0 1.4.02 2.85.07 4.34.04 1.49.11 2.76.2 3.81h47.82v-6.96c0-5.87.85-10.71 2.56-14.52s5.01-5.71 9.92-5.71c7.53 0 11.3 6.53 11.3 19.58 0 8.32-2.1 14.25-6.31 17.8s-10.29 5.32-18.26 5.32v41.52c.53-.09 1.16-.15 1.9-.2.74-.04 1.6-.07 2.56-.07 7.79 0 13.03 2.98 15.7 8.93 2.67 5.96 4.01 12.92 4.01 20.89v5.78c0 10.42-.75 17.93-2.23 22.53-1.49 4.6-4.95 6.9-10.38 6.9s-8.78-2.12-10.31-6.37-2.3-9.44-2.3-15.57v-24.3h-47.43v24.17c0 21.72 4.64 37.97 13.93 48.74 9.28 10.77 24.13 16.16 44.54 16.16 22.42 0 38.47-6.26 48.15-18.79z" fill="url(#linear-gradient)" data-name="03"/></g></svg>