<svg height="512" viewBox="0 0 22.599 22.459" width="512" xmlns="http://www.w3.org/2000/svg" xmlns:xlink="http://www.w3.org/1999/xlink"><linearGradient id="linear-gradient" gradientUnits="userSpaceOnUse" x1="4.481" x2="21.792" y1="20.948" y2="3.638"><stop offset="0" stop-color="#5459ff"/><stop offset=".567" stop-color="#11abff"/><stop offset="1" stop-color="#01beff"/></linearGradient><g id="Layer_2" data-name="Layer 2"><g id="Layer_1-2" data-name="Layer 1"><path id="request_for_proposal" d="m22.6 4.57a.414.414 0 0 0 -.1-.224l-4.241-4.236a.3.3 0 0 0 -.132-.081c-.142-.064-11.846.002-11.992-.021a.343.343 0 0 0 -.342.345v2.1a.641.641 0 0 0 -.72.629v.5a4.942 4.942 0 0 0 -.519.133c-.218-.444-.539-.962-1.106-.651-.459.28-1.371.578-.981 1.29l.244.427c-.128.122-.255.243-.371.375l-.432-.243c-.7-.385-1.014.525-1.295.976-.3.579.206.892.66 1.117a5.051 5.051 0 0 0 -.142.508c-.503-.026-1.093-.014-1.123.632-.007 1-.149 1.606 1.123 1.5a5.051 5.051 0 0 0 .142.508l-.426.254c-.69.413-.057 1.138.2 1.605.348.552.875.258 1.3-.011.116.133.243.255.371.377-.738 1.032-.117 1.245.737 1.727.567.295.89-.217 1.106-.661a4.7 4.7 0 0 0 .519.132v.5a.641.641 0 0 0 .72.629v7.416a.34.34 0 0 0 .342.335h16.115a.339.339 0 0 0 .34-.335c.003-.015-.003-17.536.003-17.552zm-1.168-.325h-3.072v-3.069zm-15.968 8.715c-.422.033-1.062-.532-1.357-.1l-.365.629-.655-.389c.111-.275.635-.791.278-1.066-.392-.194-.64-.975-1.122-.763l-.629.356-.381-.661c.232-.17.953-.368.777-.782-.247-.368-.074-1.168-.595-1.229h-.721v-.749h.721c.521-.051.348-.864.595-1.229.177-.411-.548-.613-.777-.781l.381-.661c.264.1.813.642 1.066.274.19-.378.977-.642.768-1.118l-.361-.629.655-.377.365.62c.282.431.943-.132 1.357-.1.441-.04.251-.791.289-1.066h.762c.039.277-.152 1.024.29 1.066.414-.03 1.074.533 1.356.1l.365-.62.656.377c-.108.264-.632.8-.279 1.066a4.743 4.743 0 0 1 .685.681c.254.369.805-.171 1.067-.274l.38.661c-.231.169-.952.369-.777.781.248.365.075 1.178.6 1.229h.721v.752h-.721c-.521.061-.347.862-.6 1.229-.177.412.547.614.777.782l-.38.661-.624-.356c-.473-.221-.74.569-1.128.763-.354.266.172.8.279 1.066l-.656.386-.365-.629c-.3-.433-.929.133-1.356.1-.44.036-.252.783-.29 1.057h-.762c-.037-.275.147-1.017-.289-1.057zm16.452 8.819h-15.441v-7.071a.646.646 0 0 0 .726-.629v-.5a4.6 4.6 0 0 0 .513-.132c.219.446.534.956 1.108.661.863-.5 1.466-.675.736-1.727a5.07 5.07 0 0 0 .371-.377c.424.269.939.573 1.29.011.258-.467.9-1.19.2-1.605l-.419-.253a5.042 5.042 0 0 0 .137-.508c.5.027 1.092.02 1.123-.63.008-1.005.15-1.607-1.123-1.5a5.042 5.042 0 0 0 -.137-.511c1.153-.543.731-1.009.218-1.859-.311-.551-.893-.254-1.289.009a5.245 5.245 0 0 0 -.371-.375c.272-.422.562-.93.015-1.29-.865-.5-1.32-.93-1.859.224a4.839 4.839 0 0 0 -.514-.133v-.5a.646.646 0 0 0 -.726-.629v-1.766h11.2v3.9a.342.342 0 0 0 .34.346h3.9zm-12.759-13.197a3.023 3.023 0 0 0 -6.045 0 3.023 3.023 0 0 0 6.045 0zm-5.364 0a2.342 2.342 0 0 1 4.683 0 2.342 2.342 0 0 1 -4.683 0zm15.707 4.043c-.07-.065-.152-.124-.213-.192a.021.021 0 0 0 -.021-.01c-5.182-4.315-11.207 3.747-5.746 7.557a4.765 4.765 0 0 0 5.98-7.355zm.31 5.121-1.764-1.026a2.049 2.049 0 0 0 -.321-2l1.357-1.535a4.077 4.077 0 0 1 .731 4.561zm-4.642-.783a1.361 1.361 0 0 1 1.92-1.929 1.361 1.361 0 0 1 -1.917 1.929zm2.036-2.692a1.965 1.965 0 0 0 -.731-.284v-2.052a4.012 4.012 0 0 1 2.093.792zm-3.954-1.158a4.041 4.041 0 0 1 2.541-1.178v2.052a2.047 2.047 0 0 0 -1.042 3.505l-1.133 1.716a4.1 4.1 0 0 1 -.366-6.095zm5.25 6.208a4.085 4.085 0 0 1 -4.307.264l1.122-1.718a2.045 2.045 0 0 0 2.383-.558l1.767 1.036a4.065 4.065 0 0 1 -.965.976zm-4.518-13.044h6.573a.34.34 0 0 1 0 .68h-6.573a.34.34 0 0 1 0-.68zm6.573 2.377h-3.51a.341.341 0 0 1 0-.681h3.51a.341.341 0 0 1 0 .681zm-6.573-.681h1.473a.341.341 0 0 1 0 .681h-1.473a.341.341 0 0 1 0-.681zm0 1.706h5.211a.341.341 0 0 1 0 .681h-5.211a.341.341 0 0 1 0-.681z" fill="url(#linear-gradient)" data-name="request for proposal"/></g></g></svg>