<svg id="Capa_1" enable-background="new 0 0 512 512" height="512" viewBox="0 0 512 512" width="512" xmlns="http://www.w3.org/2000/svg" xmlns:xlink="http://www.w3.org/1999/xlink"><linearGradient id="SVGID_1_" gradientUnits="userSpaceOnUse" x1="256" x2="256" y1="512" y2="0"><stop offset="0" stop-color="#00b59c"/><stop offset="1" stop-color="#9cffac"/></linearGradient><linearGradient id="SVGID_2_" gradientUnits="userSpaceOnUse" x1="240" x2="240" y1="330" y2="0"><stop offset="0" stop-color="#c3ffe8"/><stop offset=".9973" stop-color="#f0fff4"/></linearGradient><g><g><g><path d="m366.357 249.17c-11.702-12.387-31.441-11.937-42.422-.308l-38.994 38.745-8.584-8.438c-11.738-12.425-31.566-11.838-42.158-.557-12.323 11.646-12.091 31.349-.293 42.495l29.443 29.414c5.391 6.022 13.301 9.479 21.651 9.479s16.26-3.457 21.094-8.892l59.707-59.722c12.512-11.823 11.826-31.632.556-42.216zm141.249 237.225-122.762-122.747c-5.859-5.859-15.352-5.859-21.211 0s-5.859 15.352 0 21.211l122.762 122.747c5.86 5.859 15.352 5.859 21.211 0 5.859-5.86 5.859-15.352 0-21.211zm-297.606-186.395c0-49.629 40.371-90 90-90 24.668 0 47.432 9.639 64.16 27.158 4.219 4.424 10.781 5.845 16.406 3.574 5.713-2.285 9.434-7.793 9.434-13.931v-211.801c0-8.291-6.709-15-15-15h-135c-16.569 0-30 13.431-30 30v60h-30v-60c0-16.569-13.431-30-30-30h-135c-8.291 0-15 6.709-15 15v360c0 8.291 6.709 15 15 15h211.816c6.123 0 11.631-3.735 13.916-9.419 2.285-5.698.879-12.202-3.574-16.436-17.519-16.713-27.158-39.492-27.158-64.145z" fill="url(#SVGID_1_)"/></g></g><g><g><path d="m300 180c-66.299 0-120 53.699-120 120 0 66.299 53.701 120 120 120s120-53.701 120-120c0-66.301-53.701-120-120-120zm55.499 100.499-60 60c-2.699 3.001-6.599 4.501-10.499 4.501s-7.8-1.5-10.499-4.501l-30-30c-6.002-5.7-6.002-15.3 0-21 5.702-5.999 15.297-5.999 20.999 0l19.501 19.2 49.501-49.2c5.702-5.999 15.297-5.999 20.999 0 6.001 5.7 6.001 15.3-.002 21zm-115.499-175.499v-105h-90v105c0 8.291 6.709 15 15 15h60c8.291 0 15-6.709 15-15zm-105 195h-60c-8.291 0-15 6.709-15 15s6.709 15 15 15h60c8.291 0 15-6.709 15-15s-6.709-15-15-15z" fill="url(#SVGID_2_)"/></g></g></g></svg>