<svg id="Capa_1" enable-background="new 0 0 512 512" height="512" viewBox="0 0 512 512" width="512" xmlns="http://www.w3.org/2000/svg" xmlns:xlink="http://www.w3.org/1999/xlink"><linearGradient id="SVGID_1_" gradientUnits="userSpaceOnUse" x1="256" x2="256" y1="512" y2="0"><stop offset="0" stop-color="#00b59c"/><stop offset="1" stop-color="#9cffac"/></linearGradient><linearGradient id="SVGID_2_" gradientUnits="userSpaceOnUse" x1="263.5" x2="263.5" y1="452" y2="0"><stop offset="0" stop-color="#c3ffe8"/><stop offset=".9973" stop-color="#f0fff4"/></linearGradient><g><g><g><path d="m240 225v-210c0-8.291-6.709-15-15-15h-60c-16.569 0-30 13.431-30 30v60h-30v-60c0-16.569-13.431-30-30-30h-60c-8.291 0-15 6.709-15 15v210c0 8.291 6.709 15 15 15h210c8.291 0 15-6.709 15-15zm-14 196c-24.814 0-45-20.186-45-45v-15h15c6.064 0 11.543-3.647 13.857-9.258s1.025-12.056-3.252-16.348l-60-60c-5.859-5.859-15.352-5.859-21.211 0l-60 60c-4.277 4.292-5.566 10.737-3.252 16.348s7.794 9.258 13.858 9.258h15v15c0 41.353 33.633 75 75 75h60c8.291 0 15-6.709 15-15s-6.709-15-15-15zm60-330c24.814 0 45 20.186 45 45v15h-15c-6.064 0-11.543 3.647-13.857 9.258s-1.025 12.056 3.252 16.348l60 60c2.93 2.93 6.768 4.395 10.605 4.395s7.676-1.465 10.605-4.395l60-60c4.277-4.292 5.566-10.737 3.252-16.348s-7.793-9.258-13.857-9.258h-15v-15c0-41.353-33.633-75-75-75h-60c-8.291 0-15 6.709-15 15s6.709 15 15 15zm211 181h-60c-16.569 0-30 13.432-30 30v60h-30v-60c0-16.568-13.431-30-30-30h-60c-8.291 0-15 6.709-15 15v210c0 8.291 6.709 15 15 15h210c8.291 0 15-6.709 15-15v-210c0-8.291-6.709-15-15-15z" fill="url(#SVGID_1_)"/></g></g><g><g><path d="m165 105v-105h-90v105c0 8.291 6.709 15 15 15h60c8.291 0 15-6.709 15-15zm0 45h-30c-8.291 0-15 6.709-15 15s6.709 15 15 15h30c8.291 0 15-6.709 15-15s-6.709-15-15-15zm272 227v-105h-90v105c0 8.291 6.709 15 15 15h60c8.291 0 15-6.709 15-15zm0 45h-30c-8.291 0-15 6.709-15 15s6.709 15 15 15h30c8.291 0 15-6.709 15-15s-6.709-15-15-15z" fill="url(#SVGID_2_)"/></g></g></g></svg>