<svg id="Capa_1" enable-background="new 0 0 512 512" height="512" viewBox="0 0 512 512" width="512" xmlns="http://www.w3.org/2000/svg" xmlns:xlink="http://www.w3.org/1999/xlink"><linearGradient id="SVGID_1_" gradientUnits="userSpaceOnUse" x1="248.5" x2="248.5" y1="497" y2="0"><stop offset="0" stop-color="#00b59c"/><stop offset="1" stop-color="#9cffac"/></linearGradient><linearGradient id="SVGID_2_" gradientUnits="userSpaceOnUse" x1="286.5" x2="286.5" y1="512" y2="0"><stop offset="0" stop-color="#c3ffe8"/><stop offset=".9973" stop-color="#f0fff4"/></linearGradient><g><g><g><path d="m391 258.513v-243.513c0-8.291-6.709-15-15-15h-120l-30 30h-60l-30-30h-121c-8.291 0-15 6.709-15 15v302c0 8.291 6.709 14.99 15 14.99l249.899.01c-5.643 13.916-8.899 29.061-8.899 45 0 66.273 53.725 120 120 120s121-53.727 121-120c0-61.137-46.886-111.03-106-118.487z" fill="url(#SVGID_1_)"/></g></g><g><g><path d="m136 182h-60c-8.291 0-15 6.709-15 15s6.709 15 15 15h60c8.291 0 15-6.709 15-15s-6.709-15-15-15zm0 60h-60c-8.291 0-15 6.709-15 15s6.709 15 15 15h60c8.291 0 15-6.709 15-15s-6.709-15-15-15zm120-136v-106h-120v106c0 8.291 6.709 15 15 15h90c8.291 0 15-6.709 15-15zm120 136c-74.559 0-135 60.441-135 135s60.441 135 135 135 136-60.441 136-135-61.441-135-136-135zm55.605 123.105-45 45c-2.93 2.93-6.768 4.395-10.605 4.395s-7.676-1.465-10.605-4.395l-30-30c-5.859-5.859-5.859-15.352 0-21.211s15.352-5.859 21.211 0l19.394 19.395 34.395-34.395c5.859-5.859 15.352-5.859 21.211 0s5.859 15.352-.001 21.211z" fill="url(#SVGID_2_)"/></g></g></g></svg>