<svg id="Capa_1" enable-background="new 0 0 512 512" height="512" viewBox="0 0 512 512" width="512" xmlns="http://www.w3.org/2000/svg" xmlns:xlink="http://www.w3.org/1999/xlink"><linearGradient id="SVGID_1_" gradientUnits="userSpaceOnUse" x1="136.165" x2="433.015" y1="433.015" y2="136.166"><stop offset="0" stop-color="#a93aff"/><stop offset="1" stop-color="#ff81ff"/></linearGradient><linearGradient id="SVGID_2_" gradientUnits="userSpaceOnUse" x1="82.78" x2="337.22" y1="337.22" y2="82.78"><stop offset="0" stop-color="#ffbef9"/><stop offset="1" stop-color="#fff1ff"/></linearGradient><g><path d="m507.605 486.395-138.945-138.959c31.97-36.859 51.34-84.926 51.34-137.436 0-115.8-94.2-210-210-210s-210 94.2-210 210 94.2 210 210 210c52.517 0 100.59-19.376 137.45-51.353l138.945 138.958c5.86 5.859 15.352 5.859 21.211 0s5.859-15.351-.001-21.21z" fill="url(#SVGID_1_)"/><path d="m210 30c-99.252 0-180 80.748-180 180s80.748 180 180 180 180-80.748 180-180-80.748-180-180-180zm105 270c0 8.401-6.599 15-15 15h-180c-8.401 0-15-6.599-15-15v-180c0-8.401 6.599-15 15-15h45v90c0 5.1 2.703 9.9 7.2 12.9 4.2 2.701 9.902 2.701 14.399.601l23.401-11.701 23.401 11.701c5.528 2.368 10.693 1.713 14.399-.601 4.497-3 7.2-7.8 7.2-12.9v-90h45c8.401 0 15 6.599 15 15z" fill="url(#SVGID_2_)"/></g></svg>