<svg id="Capa_1" enable-background="new 0 0 512 512" height="512" viewBox="0 0 512 512" width="512" xmlns="http://www.w3.org/2000/svg" xmlns:xlink="http://www.w3.org/1999/xlink"><linearGradient id="SVGID_1_" gradientUnits="userSpaceOnUse" x1="241" x2="241" y1="481" y2="0"><stop offset="0" stop-color="#a93aff"/><stop offset="1" stop-color="#ff81ff"/></linearGradient><linearGradient id="SVGID_2_" gradientUnits="userSpaceOnUse" x1="256" x2="256" y1="512" y2="30"><stop offset="0" stop-color="#ffbef9"/><stop offset="1" stop-color="#fff1ff"/></linearGradient><g><g><g><path d="m451 346.339v-226.339l-34.105-15h-10.895v-51l-15-24v-15c0-8.291-6.709-15-15-15h-60c-8.291 0-15 6.709-15 15v15l-15 21.158v53.842h-120v-51l-15-24v-15c0-8.291-6.709-15-15-15h-60c-8.291 0-15 6.709-15 15v15l-15 28.737v46.263c0 .051.029.095.029.146l-46.029 14.854v256c0 8.291 6.709 14.99 15 14.99h317.512c-.985 4.849-1.512 9.872-1.512 15.01 0 41.42 33.578 75 75 75s76-33.58 76-75c0-24.458-12.885-45.97-31-59.661z" fill="url(#SVGID_1_)"/></g></g><g><g><path d="m451 45c0-8.291-6.709-15-15-15h-45v45c0 8.291-6.709 15-15 15h-60c-8.291 0-15-6.709-15-15v-45h-150v45c0 8.291-6.709 15-15 15h-60c-8.291 0-15-6.709-15-15v-45h-46c-8.291 0-15 6.709-15 15v75h451zm-255 136h-30c-8.291 0-15 6.709-15 15s6.709 15 15 15h30c8.291 0 15-6.709 15-15s-6.709-15-15-15zm0 60h-30c-8.291 0-15 6.709-15 15s6.709 15 15 15h30c8.291 0 15-6.709 15-15s-6.709-15-15-15zm90 0h-30c-8.291 0-15 6.709-15 15s6.709 15 15 15h30c8.291 0 15-6.709 15-15s-6.709-15-15-15zm0 60h-30c-8.291 0-15 6.709-15 15s6.709 15 15 15h30c8.291 0 15-6.709 15-15s-6.709-15-15-15zm0-120h-30c-8.291 0-15 6.709-15 15s6.709 15 15 15h30c8.291 0 15-6.709 15-15s-6.709-15-15-15zm90 0h-30c-8.291 0-15 6.709-15 15s6.709 15 15 15h30c8.291 0 15-6.709 15-15s-6.709-15-15-15zm-180 120h-30c-8.291 0-15 6.709-15 15s6.709 15 15 15h30c8.291 0 15-6.709 15-15s-6.709-15-15-15zm-90 0h-30c-8.291 0-15 6.709-15 15s6.709 15 15 15h30c8.291 0 15-6.709 15-15s-6.709-15-15-15zm270-60h-30c-8.291 0-15 6.709-15 15s6.709 15 15 15h30c8.291 0 15-6.709 15-15s-6.709-15-15-15zm-270 0h-30c-8.291 0-15 6.709-15 15s6.709 15 15 15h30c8.291 0 15-6.709 15-15s-6.709-15-15-15zm300 60c-57.891 0-105 47.109-105 105s47.109 106 105 106 106-48.109 106-106-48.109-105-106-105zm43.418 81.709-30 60c-4.818 9.54-17.075 10.845-24.023 3.896l-30-30c-5.859-5.859-5.859-15.352 0-21.211s15.352-5.859 21.211 0l15.284 15.284 20.693-41.387c3.735-7.412 12.715-10.4 20.127-6.709 7.411 3.706 10.414 12.715 6.708 20.127z" fill="url(#SVGID_2_)"/></g></g></g></svg>