<svg id="Capa_1" enable-background="new 0 0 512 512" height="512" viewBox="0 0 512 512" width="512" xmlns="http://www.w3.org/2000/svg" xmlns:xlink="http://www.w3.org/1999/xlink"><linearGradient id="SVGID_1_" gradientUnits="userSpaceOnUse" x1="241" x2="241" y1="512" y2="0"><stop offset="0" stop-color="#a93aff"/><stop offset="1" stop-color="#ff81ff"/></linearGradient><linearGradient id="SVGID_2_" gradientUnits="userSpaceOnUse" x1="286" x2="286" y1="451" y2="0"><stop offset="0" stop-color="#ffbef9"/><stop offset="1" stop-color="#fff1ff"/></linearGradient><g><g><g><path d="m421 0h-315c-32.999 0-60 26.999-60 60v437c0 8.399 6.599 15 15 15h300c8.401 0 15-6.601 15-15v-347l60-75z" fill="url(#SVGID_1_)"/></g></g><g><g><path d="m121 301c-8.284 0-15 6.716-15 15s6.716 15 15 15 15-6.716 15-15-6.716-15-15-15zm0 60c-8.284 0-15 6.716-15 15s6.716 15 15 15 15-6.716 15-15-6.716-15-15-15zm0 60c-8.284 0-15 6.716-15 15s6.716 15 15 15 15-6.716 15-15-6.716-15-15-15zm180-120h-120c-8.291 0-15 6.709-15 15s6.709 15 15 15h120c8.291 0 15-6.709 15-15s-6.709-15-15-15zm0 60h-120c-8.291 0-15 6.709-15 15s6.709 15 15 15h120c8.291 0 15-6.709 15-15s-6.709-15-15-15zm0 60h-120c-8.291 0-15 6.709-15 15s6.709 15 15 15h120c8.291 0 15-6.709 15-15s-6.709-15-15-15zm144.602-413.5c-6.899-4.801-15.601-7.5-24.602-7.5-24.902 0-45 20.1-45 45v105h75c8.284 0 15-6.716 15-15v-90c0-15.901-8.101-29.7-20.398-37.5zm-144.602 52.5h-45v90c0 5.1-2.701 9.9-7.2 12.9-3.693 2.307-8.825 2.989-14.399.601l-23.401-11.701-23.401 11.7c-4.499 2.1-10.199 2.1-14.399-.601-4.499-3-7.2-7.8-7.2-12.9v-89.999h-45c-8.401 0-15 6.599-15 15v180c0 8.401 6.599 15 15 15h180c8.401 0 15-6.599 15-15v-180c0-8.401-6.599-15-15-15z" fill="url(#SVGID_2_)"/></g></g></g></svg>