<svg id="Capa_1" enable-background="new 0 0 512 512" height="512" viewBox="0 0 512 512" width="512" xmlns="http://www.w3.org/2000/svg" xmlns:xlink="http://www.w3.org/1999/xlink"><linearGradient id="SVGID_1_" gradientUnits="userSpaceOnUse" x1="256" x2="256" y1="512" y2="0"><stop offset="0" stop-color="#5558ff"/><stop offset="1" stop-color="#00c0ff"/></linearGradient><linearGradient id="SVGID_2_" gradientUnits="userSpaceOnUse" x1="279.533" x2="279.533" y1="512" y2="14.934"><stop offset="0" stop-color="#addcff"/><stop offset=".5028" stop-color="#eaf6ff"/><stop offset="1" stop-color="#eaf6ff"/></linearGradient><g><g><g><path d="m430.027 210.238c5.86 5.859 15.352 5.859 21.211 0s5.859-15.352 0-21.211l-21.211-21.211c-5.859-5.859-15.352-5.859-21.211 0s-5.859 15.352 0 21.211zm-53.027-119.238c8.291 0 15-6.709 15-15v-61c0-8.291-6.709-15-15-15s-15 6.709-15 15v61c0 8.291 6.709 15 15 15zm53.027 13.184 21.211-21.211c5.859-5.859 5.859-15.352 0-21.211s-15.352-5.859-21.211 0l-21.211 21.211c-5.859 5.859-5.859 15.352 0 21.211 5.86 5.859 15.352 5.859 21.211 0zm-53.027 166.816c8.291 0 15-6.709 15-15v-60c0-8.291-6.709-15-15-15s-15 6.709-15 15v60c0 8.291 6.709 15 15 15zm45-135c0 8.291 6.709 15 15 15h60c8.291 0 15-6.709 15-15s-6.709-15-15-15h-60c-8.291 0-15 6.709-15 15zm-98.027-31.816c5.86 5.859 15.352 5.859 21.211 0s5.859-15.352 0-21.211l-21.211-21.211c-5.859-5.859-15.352-5.859-21.211 0s-5.859 15.352 0 21.211zm-126.973-104.184h-182c-8.291 0-15 6.709-15 15v482c0 8.291 6.709 15 15 15h46l30-30h30l30 30h46c8.291 0 15-6.709 15-15v-482c0-8.291-6.709-15-15-15zm300 301h-240c-8.291 0-15 6.709-15 15v181c0 8.291 6.709 15 15 15h75l30-30h30l30 30h75c8.291 0 15-6.709 15-15v-181c0-8.291-6.709-15-15-15zm-240-150h60c8.291 0 15-6.709 15-15s-6.709-15-15-15h-60c-8.291 0-15 6.709-15 15s6.709 15 15 15zm66.973 16.816-21.211 21.211c-5.859 5.859-5.859 15.352 0 21.211 5.86 5.859 15.352 5.859 21.211 0l21.211-21.211c5.859-5.859 5.859-15.352 0-21.211s-15.352-5.859-21.211 0z" fill="url(#SVGID_1_)"/></g></g><g><g><path d="m136 361h-60c-8.291 0-15 6.709-15 15s6.709 15 15 15h60c8.291 0 15-6.709 15-15s-6.709-15-15-15zm0-120h-60c-8.291 0-15 6.709-15 15s6.709 15 15 15h60c8.291 0 15-6.709 15-15s-6.709-15-15-15zm0-60h-60c-8.291 0-15 6.709-15 15s6.709 15 15 15h60c8.291 0 15-6.709 15-15s-6.709-15-15-15zm0 120h-60c-8.291 0-15 6.709-15 15s6.709 15 15 15h60c8.291 0 15-6.709 15-15s-6.709-15-15-15zm0 120h-60c-8.291 0-15 6.709-15 15v76h90v-76c0-8.291-6.709-15-15-15zm357.673-380.459c5.858-5.858 5.858-15.355 0-21.213-5.858-5.857-15.355-5.857-21.213 0-5.858 5.858-5.858 15.355 0 21.213 5.857 5.857 15.355 5.857 21.213 0zm-116.673 110.459c8.284 0 15-6.716 15-15s-6.716-15-15-15-15 6.716-15 15 6.716 15 15 15zm30 270h-60c-8.291 0-15 6.709-15 15v76h90v-76c0-8.291-6.709-15-15-15zm-271-300h-60c-8.291 0-15 6.709-15 15s6.709 15 15 15h60c8.291 0 15-6.709 15-15s-6.709-15-15-15zm336.459 110.459c-5.858 5.858-5.858 15.355 0 21.213 5.858 5.857 15.355 5.857 21.213 0 5.858-5.858 5.858-15.355 0-21.213s-15.355-5.857-21.213 0zm-212.132-212.132c-5.858 5.858-5.858 15.355 0 21.213s15.355 5.858 21.213 0 5.858-15.355 0-21.213c-5.857-5.857-15.355-5.857-21.213 0zm146.673 341.673h-60c-8.291 0-15 6.709-15 15s6.709 15 15 15h60c8.291 0 15-6.709 15-15s-6.709-15-15-15zm-271-300h-60c-8.291 0-15 6.709-15 15s6.709 15 15 15h60c8.291 0 15-6.709 15-15s-6.709-15-15-15zm124.327 170.459c-5.858 5.858-5.858 15.355 0 21.213 5.858 5.857 15.355 5.857 21.213 0 5.858-5.858 5.858-15.355 0-21.213s-15.355-5.857-21.213 0z" fill="url(#SVGID_2_)"/></g></g></g></svg>