<svg id="Capa_1" enable-background="new 0 0 512.007 512.007" height="512" viewBox="0 0 512.007 512.007" width="512" xmlns="http://www.w3.org/2000/svg" xmlns:xlink="http://www.w3.org/1999/xlink"><linearGradient id="SVGID_1_" gradientUnits="userSpaceOnUse" x1="248.5" x2="248.5" y1="466.004" y2="31.004"><stop offset="0" stop-color="#5558ff"/><stop offset="1" stop-color="#00c0ff"/></linearGradient><linearGradient id="SVGID_2_" gradientUnits="userSpaceOnUse" x1="286.504" x2="286.504" y1="481.004" y2="31.004"><stop offset="0" stop-color="#addcff"/><stop offset=".5028" stop-color="#eaf6ff"/><stop offset="1" stop-color="#eaf6ff"/></linearGradient><g><g><g><path d="m391 293.511v-247.507c0-8.291-6.709-15-15-15h-120l-30 30h-60l-30-30h-121c-8.291 0-15 6.709-15 15v300c0 8.291 6.709 14.99 15 14.99l192.466.01c-6.885 8.26-10.867 14.104-11.466 15 2.461 3.677 61.025 90 150 90s148.539-86.323 151-90c-2.016-3.014-42.759-61.471-106-82.493z" fill="url(#SVGID_1_)"/></g></g><g><g><path d="m136 211.004h-60c-8.291 0-15 6.709-15 15s6.709 15 15 15h60c8.291 0 15-6.709 15-15s-6.709-15-15-15zm0 60h-60c-8.291 0-15 6.709-15 15s6.709 15 15 15h60c8.291 0 15-6.709 15-15s-6.709-15-15-15zm120-135v-105h-120v105c0 8.291 6.709 15 15 15h90c8.291 0 15-6.709 15-15zm253.48 231.679c-2.637-3.955-66.566-96.68-163.48-96.68s-159.844 92.725-162.48 96.68c-3.369 5.039-3.369 11.602 0 16.641 2.637 3.955 65.566 96.68 162.48 96.68s160.844-92.725 163.48-96.68c3.37-5.039 3.37-11.602 0-16.641zm-163.48 53.321c-24.814 0-45-20.186-45-45s20.186-45 45-45 45 20.186 45 45-20.186 45-45 45z" fill="url(#SVGID_2_)"/></g></g></g></svg>